HIERARCHY
ROOT joint_Root
{
  OFFSET 0 0 0
  CHANNELS 6 Xposition Yposition Zposition Zrotation Xrotation Yrotation
  JOINT Hips
  {
    OFFSET 0 93.9241 -3
    CHANNELS 6 Xposition Yposition Zposition Zrotation Xrotation Yrotation
    JOINT Spine
    {
      OFFSET 15.7357 0 0
      CHANNELS 6 Xposition Yposition Zposition Zrotation Xrotation Yrotation
      JOINT Chest
      {
        OFFSET 8.98455 -0.406207 0
        CHANNELS 6 Xposition Yposition Zposition Zrotation Xrotation Yrotation
        JOINT Neck
        {
          OFFSET 16.3773 0 0
          CHANNELS 6 Xposition Yposition Zposition Zrotation Xrotation Yrotation
          JOINT Head
          {
            OFFSET 6.45672 0 0
            CHANNELS 6 Xposition Yposition Zposition Zrotation Xrotation Yrotation
            End Site
            {
              OFFSET 0 0 0
            }
          }
        }
        JOINT Shoulder_L
        {
          OFFSET 12.9942 -0.242716 4.98039
          CHANNELS 6 Xposition Yposition Zposition Zrotation Xrotation Yrotation
          JOINT UpperArm_L
          {
            OFFSET 5.34809 0 0
            CHANNELS 6 Xposition Yposition Zposition Zrotation Xrotation Yrotation
            JOINT LowerArm_L
            {
              OFFSET 24.3286 1.87007e-05 0
              CHANNELS 6 Xposition Yposition Zposition Zrotation Xrotation Yrotation
              JOINT Hand_L
              {
                OFFSET 22.2916 0 0
                CHANNELS 6 Xposition Yposition Zposition Zrotation Xrotation Yrotation
                End Site
                {
                  OFFSET 0 0 0
                }
              }
            }
          }
        }
        JOINT Shoulder_R
        {
          OFFSET 12.9945 -0.242716 -4.98039
          CHANNELS 6 Xposition Yposition Zposition Zrotation Xrotation Yrotation
          JOINT UpperArm_R
          {
            OFFSET -5.34813 0 0
            CHANNELS 6 Xposition Yposition Zposition Zrotation Xrotation Yrotation
            JOINT LowerArm_R
            {
              OFFSET -24.3289 0.000322201 0
              CHANNELS 6 Xposition Yposition Zposition Zrotation Xrotation Yrotation
              JOINT Hand_R
              {
                OFFSET -22.2915 -0.000108084 0
                CHANNELS 6 Xposition Yposition Zposition Zrotation Xrotation Yrotation
                End Site
                {
                  OFFSET 0 0 0
                }
              }
            }
          }
        }
      }
    }
    JOINT UpperLeg_L
    {
      OFFSET -2.19248 -6.46944 0
      CHANNELS 6 Xposition Yposition Zposition Zrotation Xrotation Yrotation
      JOINT LowerLeg_L
      {
        OFFSET 39.0811 0 -1.23785e-05
        CHANNELS 6 Xposition Yposition Zposition Zrotation Xrotation Yrotation
        JOINT Foot_L
        {
          OFFSET 40.9854 0 -1.26872e-05
          CHANNELS 6 Xposition Yposition Zposition Zrotation Xrotation Yrotation
          JOINT Toes_L
          {
            OFFSET 11.7543 0 0
            CHANNELS 6 Xposition Yposition Zposition Zrotation Xrotation Yrotation
            End Site
            {
              OFFSET 0 0 0
            }
          }
        }
      }
    }
    JOINT UpperLeg_R
    {
      OFFSET -2.19251 6.46944 0
      CHANNELS 6 Xposition Yposition Zposition Zrotation Xrotation Yrotation
      JOINT LowerLeg_R
      {
        OFFSET -39.0811 -0.00228153 -0.0401928
        CHANNELS 6 Xposition Yposition Zposition Zrotation Xrotation Yrotation
        JOINT Foot_R
        {
          OFFSET -40.9854 0 0
          CHANNELS 6 Xposition Yposition Zposition Zrotation Xrotation Yrotation
          JOINT Toes_R
          {
            OFFSET -11.7543 0 0
            CHANNELS 6 Xposition Yposition Zposition Zrotation Xrotation Yrotation
            End Site
            {
              OFFSET 0 0 0
            }
          }
        }
      }
    }
  }
}
MOTION
Frames:	6
Frame Time:	0.0333333
0 0 0 0 0 -0 -18.9063 86.2957 -15.5696 83.8318 46.2253 -6.8231 15.7357 5.1072e-06 -5.51765e-07 94.2199 71.6775 -84.7212 8.98455 -0.406207 -4.3199e-07 28.5296 4.28877 18.0934 16.3773 -1.3905e-06 -6.99897e-07 -0.908902 -9.3225 15.2604 6.45672 -1.25837e-06 -1.02172e-07 -10.743 -10.9085 14.6469 12.9942 -0.242716 4.98039 -90.326 -6.94169 -107.696 5.34809 -7.22636e-06 -6.2814e-07 -72.0639 13.0591 -44.6982 24.3286 1.87007e-05 4.90208e-06 4.5926 10.7362 -23.3268 22.2916 -9.88446e-07 4.63217e-06 7.85087 5.17002 3.46137 12.9945 -0.242716 -4.98039 89.9628 -0.390592 -110.475 -5.34813 -1.25947e-06 -3.79883e-06 -41.0345 -13.3361 -26.5279 -24.3289 0.000322201 -8.65921e-06 5.73107 11.5438 -26.6375 -22.2915 -0.000108084 -4.47941e-06 16.9956 5.38861 -2.56543 -2.19248 -6.46944 -1.22534e-07 168.419 -23.0232 -26.282 39.0811 -6.73843e-06 -1.23785e-05 -0.204433 0.123271 51.1693 40.9854 -6.48686e-06 -1.26872e-05 13.0426 7.59552 -63.4264 11.7543 -2.30145e-07 3.05095e-06 2.18342 -2.01392 -39.4716 -2.19251 6.46944 -1.45247e-06 176.037 -23.8507 132.225 -39.0811 -0.00228153 -0.0401928 -0.331708 0.383747 41.3968 -40.9854 7.72618e-06 5.99936e-06 -4.30538 -17.527 -57.791 -11.7543 -5.6619e-06 -5.58687e-06 -0.164426 0.146194 -16.5701 
0 0 0 0 0 -0 -16.5447 85.8989 -15.4392 82.8435 45.2698 -6.74766 15.7357 5.1072e-06 -5.51765e-07 93.7346 71.144 -83.9308 8.98455 -0.406207 -4.3199e-07 29.6149 4.19736 18.7106 16.3773 -1.3905e-06 -6.99897e-07 -0.696576 -8.20401 15.9298 6.45672 -1.25837e-06 -1.02172e-07 -14.2949 -10.0885 14.7196 12.9942 -0.242716 4.98039 -90.4017 -7.11665 -108.238 5.34809 -7.22636e-06 -6.2814e-07 -72.7623 11.9728 -48.4004 24.3286 1.87007e-05 4.90208e-06 4.77981 11.0701 -23.532 22.2916 -9.88446e-07 4.63217e-06 9.62253 5.18646 3.05979 12.9945 -0.242716 -4.98039 90.0261 0.20606 -112.221 -5.34813 -1.25947e-06 -3.79883e-06 -34.9783 -11.6713 -25.8045 -24.3289 0.000322201 -8.65921e-06 4.05914 9.99827 -22.2364 -22.2915 -0.000108084 -4.47941e-06 18.9453 5.44617 -4.49601 -2.19248 -6.46944 -1.22534e-07 167.945 -22.8047 -26.8467 39.0811 -6.73843e-06 -1.23785e-05 -0.171279 0.129414 52.3313 40.9854 -6.48686e-06 -1.26872e-05 12.5441 6.36858 -61.4162 11.7543 -2.30145e-07 3.05095e-06 1.82615 -2.63151 -40.8639 -2.19251 6.46944 -1.45247e-06 176.158 -23.7621 131.544 -39.0811 -0.00228153 -0.0401928 -0.392004 0.409833 44.1822 -40.9854 7.72618e-06 5.99936e-06 -5.37151 -16.3023 -60.7549 -11.7543 -5.6619e-06 -5.58687e-06 -0.213564 0.191731 -16.5695 
0 0 0 0 0 -0 -14.3125 85.8516 -15.3906 82.2887 44.9199 -7.85081 15.7357 5.1072e-06 -5.51765e-07 93.128 71.1147 -82.902 8.98455 -0.406207 -4.3199e-07 29.7079 3.90947 19.6385 16.3773 -1.3905e-06 -6.99897e-07 -0.978994 -8.12648 16.1529 6.45672 -1.25837e-06 -1.02172e-07 -13.8961 -9.00658 15.7022 12.9942 -0.242716 4.98039 -90.5322 -8.2091 -108.722 5.34809 -7.22636e-06 -6.2814e-07 -72.3186 12.0652 -53.2135 24.3286 1.87007e-05 4.90208e-06 4.38695 10.8651 -22.145 22.2916 -9.88446e-07 4.63217e-06 11.5757 5.20435 2.61116 12.9945 -0.242716 -4.98039 90.0177 0.149938 -111.641 -5.34813 -1.25947e-06 -3.79883e-06 -31.1624 -9.60391 -28.5075 -24.3289 0.000322201 -8.65921e-06 3.50568 12.9274 -15.331 -22.2915 -0.000108084 -4.47941e-06 19.0741 5.42614 -3.80084 -2.19248 -6.46944 -1.22533e-07 166.967 -22.5907 -27.8174 39.0811 -6.73843e-06 -1.23785e-05 -0.176079 0.134686 52.2561 40.9854 -6.48686e-06 -1.26872e-05 12.0785 5.96634 -58.702 11.7543 -2.30145e-07 3.05095e-06 1.69831 -3.02212 -42.0128 -2.19251 6.46944 -1.45247e-06 176.019 -22.3407 130.885 -39.0811 -0.00228153 -0.0401928 -0.443093 0.444187 45.3491 -40.9854 7.72618e-06 5.99936e-06 -5.86657 -14.5259 -62.752 -11.7543 -5.6619e-06 -5.58687e-06 -0.232342 0.209388 -16.5691 
0 0 0 0 0 -0 -12.2011 86.0868 -15.2433 81.3643 43.7668 -8.49018 15.7357 5.1072e-06 -5.51765e-07 93.7472 71.3249 -83.1528 8.98455 -0.406207 -4.3199e-07 29.2275 4.30227 20.2892 16.3773 -1.3905e-06 -6.99897e-07 -1.30158 -8.63029 16.1572 6.45672 -1.25837e-06 -1.02172e-07 -10.1203 -8.17578 16.3441 12.9942 -0.242716 4.98039 -90.6604 -9.1517 -109.145 5.34809 -7.22636e-06 -6.2814e-07 -69.1048 13.0681 -58.4735 24.3286 1.87007e-05 4.90208e-06 3.73735 10.2109 -20.227 22.2916 -9.88446e-07 4.63217e-06 11.0124 5.20112 2.69204 12.9945 -0.242716 -4.98039 89.9559 -0.483439 -110.212 -5.34813 -1.25947e-06 -3.79883e-06 -31.1546 -9.58221 -31.2701 -24.3289 0.000322201 -8.65921e-06 3.03355 17.6693 -9.91335 -22.2915 -0.000108084 -4.47941e-06 18.4921 5.27869 0.651729 -2.19248 -6.46944 -1.22534e-07 166.791 -23.8994 -28.3253 39.0811 -6.73843e-06 -1.23785e-05 -0.145458 0.0965855 51.6275 40.9854 -6.48686e-06 -1.26872e-05 10.2361 7.71991 -56.0105 11.7543 -2.30145e-07 3.05095e-06 1.72683 -3.11987 -42.7535 -2.19251 6.46944 -1.45247e-06 175.512 -23.0212 130.859 -39.0811 -0.00228153 -0.0401928 -0.460556 0.467634 45.0524 -40.9854 7.72618e-06 5.99936e-06 -6.59258 -13.9554 -64.0735 -11.7543 -5.6619e-06 -5.58687e-06 -0.224553 0.205097 -16.5693 
0 0 0 0 0 -0 -10.18 86.5226 -15.0748 80.5999 42.4602 -9.10151 15.7357 5.1072e-06 -5.51765e-07 93.9933 71.539 -83.4949 8.98455 -0.406207 -4.3199e-07 28.7867 4.37223 20.0862 16.3773 -1.3905e-06 -6.99897e-07 -0.464837 -8.12884 16.782 6.45672 -1.25837e-06 -1.02172e-07 -7.29968 -7.80542 16.0451 12.9942 -0.242716 4.98039 -90.6531 -9.78362 -108.837 5.34809 -7.22636e-06 -6.2814e-07 -63.1517 13.266 -63.1599 24.3286 1.87007e-05 4.90208e-06 3.77538 10.5118 -19.8851 22.2916 -9.88446e-07 4.63217e-06 7.85969 5.1723 3.40834 12.9945 -0.242716 -4.98039 89.9573 -0.476967 -110.122 -5.34813 -1.25947e-06 -3.79883e-06 -33.9878 -12.0744 -32.8401 -24.3289 0.000322201 -8.65921e-06 2.47756 20.3218 -7.10539 -22.2915 -0.000108084 -4.47941e-06 19.4861 5.09107 5.30221 -2.19248 -6.46944 -1.22534e-07 167.356 -25.116 -28.866 39.0811 -6.73843e-06 -1.23785e-05 -0.0997969 0.00481193 51.4235 40.9854 -6.48686e-06 -1.26872e-05 5.51705 11.1593 -52.5082 11.7543 -2.30145e-07 3.05095e-06 1.67773 -2.95438 -41.498 -2.19251 6.46944 -1.45247e-06 174.244 -25.1595 131.121 -39.0811 -0.00228153 -0.0401928 -0.432194 0.45855 43.8031 -40.9854 7.72618e-06 5.99936e-06 -7.72128 -14.7755 -65.039 -11.7543 -5.6619e-06 -5.58687e-06 -0.213597 0.197959 -16.5699 
0 0 0 0 0 -0 -8.28738 87.005 -14.9433 80.8013 41.8796 -10.0473 15.7357 5.1072e-06 -5.51765e-07 93.8597 71.7141 -83.531 8.98455 -0.406207 -4.3199e-07 28.4584 4.20993 19.791 16.3773 -1.3905e-06 -6.99897e-07 0.232891 -7.96564 16.2243 6.45672 -1.25837e-06 -1.02172e-07 -5.54941 -8.06373 16.245 12.9942 -0.242716 4.98039 -90.6812 -9.93549 -108.942 5.34809 -7.22636e-06 -6.2814e-07 -56.3107 12.0937 -67.0921 24.3286 1.87007e-05 4.90208e-06 4.49723 11.7303 -21.1476 22.2916 -9.88446e-07 4.63217e-06 5.9631 5.16295 3.63213 12.9945 -0.242716 -4.98039 89.9538 -0.483951 -110.46 -5.34813 -1.25947e-06 -3.79883e-06 -36.9528 -14.8825 -32.8896 -24.3289 0.000322201 -8.65921e-06 2.10585 19.6229 -6.25141 -22.2915 -0.000108084 -4.47941e-06 21.0066 5.08171 5.5324 -2.19248 -6.46944 -1.22534e-07 168.375 -24.2468 -29.8003 39.0811 -6.73843e-06 -1.23785e-05 0.171993 -0.132959 52.2078 40.9854 -6.48686e-06 -1.26872e-05 -3.50368 15.0243 -47.0729 11.7543 -2.30145e-07 3.05095e-06 1.48117 -2.39335 -37.174 -2.19251 6.46944 -1.45247e-06 173.166 -25.4236 132.013 -39.0811 -0.00228153 -0.0401928 -0.395228 0.438303 42.4903 -40.9854 7.72618e-06 5.99936e-06 -8.31925 -14.5761 -65.7553 -11.7543 -5.6619e-06 -5.58687e-06 -0.220819 0.205728 -16.5698 
